<svg xmlns="http://www.w3.org/2000/svg" viewBox="0 0 33 24" width="47" height="47"><defs><path id="a" d="M 14.963 0.13 v 15.31 H 0.01 V 0.13 h 14.953 Z"/><path id="c" d="M 0.026 0.141 h 12.5 v 4.465 H 0.026 V 0.14 Z"/></defs><g fill="none" fill-rule="evenodd"><g transform="translate(17.919 8.42)"><mask id="b" fill="#fff"><use xmlns:xlink="http://www.w3.org/1999/xlink" xlink:href="#a"/></mask><path fill="currentColor" mask="url(&quot;#b&quot;)" d="M 7.487 3.659 c -2.223 0 -4.03 1.85 -4.03 4.126 c 0 2.275 1.807 4.126 4.03 4.126 c 2.222 0 4.03 -1.85 4.03 -4.126 c 0 -2.275 -1.808 -4.126 -4.03 -4.126 m 0 11.78 C 3.364 15.44 0.01 12.006 0.01 7.785 C 0.01 3.565 3.364 0.131 7.487 0.131 c 4.122 0 7.476 3.433 7.476 7.654 c 0 4.22 -3.354 7.654 -7.476 7.654"/></g><path fill="currentColor" d="M 7.477 12.078 c -2.222 0 -4.03 1.85 -4.03 4.126 c 0 2.275 1.808 4.126 4.03 4.126 c 2.223 0 4.03 -1.85 4.03 -4.126 c 0 -2.275 -1.807 -4.126 -4.03 -4.126 m 0 11.78 C 3.354 23.859 0 20.426 0 16.205 c 0 -4.22 3.354 -7.655 7.477 -7.655 s 7.477 3.434 7.477 7.655 c 0 4.22 -3.354 7.655 -7.477 7.655 M 13.033 6.534 H 7.006 c -0.956 0 -1.73 -0.793 -1.73 -1.771 c 0 -0.978 0.774 -1.771 1.73 -1.771 h 6.027 c 0.956 0 1.73 0.793 1.73 1.77 c 0 0.979 -0.774 1.772 -1.73 1.772"/><g transform="translate(17.321 0.011)"><mask id="d" fill="#fff"><use xmlns:xlink="http://www.w3.org/1999/xlink" xlink:href="#c"/></mask><path fill="currentColor" mask="url(&quot;#d&quot;)" d="M 6.261 4.606 a 13.07 13.07 0 0 1 -5.177 -1.06 C 0.206 3.17 -0.207 2.136 0.16 1.237 A 1.71 1.71 0 0 1 2.415 0.291 a 9.71 9.71 0 0 0 3.846 0.787 A 9.713 9.713 0 0 0 10.133 0.28 a 1.709 1.709 0 0 1 2.257 0.94 c 0.37 0.898 -0.041 1.933 -0.918 2.312 a 13.072 13.072 0 0 1 -5.21 1.074"/></g></g></svg>